<?xml version="1.0" standalone="no"?>
<!DOCTYPE svg PUBLIC "-//W3C//DTD SVG 20010904//EN"
 "http://www.w3.org/TR/2001/REC-SVG-20010904/DTD/svg10.dtd">
<svg version="1.0" xmlns="http://www.w3.org/2000/svg"
 width="727.000000pt" height="727.000000pt" viewBox="0 0 727.000000 727.000000"
 preserveAspectRatio="xMidYMid meet">
<metadata>
Created by potrace 1.11, written by Peter Selinger 2001-2013
</metadata>
<g transform="translate(0.000000,727.000000) scale(0.100000,-0.100000)"
fill="#000000" stroke="none">
<path d="M3686 6896 c3 -11 15 -40 26 -64 11 -24 18 -46 15 -49 -5 -5 0 -14
30 -47 7 -8 10 -16 8 -20 -3 -3 -2 -4 2 -1 3 3 14 -2 23 -10 10 -9 31 -17 48
-18 25 -2 28 -5 21 -19 -9 -16 -7 -17 18 -7 15 6 24 7 20 3 -4 -4 1 -13 11
-20 10 -7 31 -31 47 -54 25 -36 27 -44 16 -62 -11 -18 -10 -19 11 -12 22 6
104 58 139 86 23 19 89 124 89 143 0 24 -13 18 -55 -25 -105 -107 -184 -91
-313 64 -51 62 -89 98 -119 112 l-44 21 7 -21z"/>
<path d="M3581 6837 c-19 -20 -30 -40 -26 -47 8 -12 -72 -90 -93 -90 -7 0 -24
-11 -38 -25 -22 -23 -75 -55 -88 -55 -3 0 -20 21 -37 48 l-31 47 6 -41 c4 -31
2 -43 -8 -47 -19 -7 -46 24 -46 52 0 32 -17 17 -25 -22 -10 -50 -57 -138 -83
-155 -19 -12 -27 -13 -41 -4 -9 7 -24 15 -33 18 -10 4 -18 10 -18 15 0 5 -11
9 -24 9 -27 0 -131 44 -141 59 -3 6 -14 11 -23 11 -9 0 -30 11 -46 25 -16 13
-32 22 -37 19 -21 -12 30 -73 62 -74 9 0 41 -18 72 -40 30 -22 63 -40 72 -40
8 0 37 -11 63 -24 26 -13 63 -27 82 -31 19 -4 45 -13 57 -21 36 -23 47 -17 76
45 16 32 38 68 50 79 21 20 121 80 182 110 62 30 161 158 153 198 -2 11 -12 6
-37 -19z m-1 -37 c0 -5 -4 -10 -10 -10 -5 0 -10 5 -10 10 0 6 5 10 10 10 6 0
10 -4 10 -10z"/>
<path d="M4271 6752 c-12 -42 -4 -175 10 -180 9 -4 13 -42 5 -42 -3 0 -16 4
-30 10 -31 11 -46 -9 -46 -62 0 -19 -7 -43 -15 -54 -18 -24 -19 -123 -1 -146
19 -26 51 -22 70 8 12 17 25 24 39 22 25 -3 47 8 47 24 0 6 -12 8 -30 5 -38
-8 -42 18 -5 35 14 6 25 17 25 25 0 17 5 16 47 -3 l34 -17 29 34 c16 19 29 42
30 52 0 9 5 17 12 17 6 0 9 2 6 5 -12 12 -36 -8 -42 -36 -3 -16 -11 -28 -18
-27 -24 6 -58 42 -69 75 -6 18 -15 33 -20 33 -5 0 -9 5 -9 11 0 5 -9 30 -20
54 -29 64 -36 127 -16 144 11 10 16 10 16 2 0 -7 5 -9 10 -6 12 8 -19 54 -37
55 -7 0 -17 -17 -22 -38z"/>
<path d="M3730 6635 c0 -14 -6 -25 -13 -25 -18 0 -40 -56 -35 -91 3 -16 1 -29
-3 -29 -4 0 -15 -7 -23 -16 -15 -14 -16 -14 -16 5 0 11 8 25 18 30 22 13 11
14 -23 1 -17 -7 -25 -15 -22 -25 8 -19 -30 -30 -48 -15 -8 7 -15 25 -15 41 0
16 -3 29 -7 29 -18 -1 -43 -29 -43 -48 0 -11 -5 -22 -11 -24 -6 -2 -5 -14 5
-33 14 -27 14 -30 -9 -53 -13 -13 -29 -21 -35 -17 -5 3 -10 -1 -10 -9 0 -21
24 -20 41 0 11 13 14 13 21 0 11 -20 1 -43 -23 -49 -12 -3 -17 -1 -12 6 4 7 0
8 -11 4 -10 -4 -22 -7 -27 -7 -5 0 -9 -4 -9 -9 0 -5 23 -12 50 -16 52 -7 58
-13 38 -33 -10 -10 -10 -15 1 -21 11 -7 10 -13 -8 -32 -25 -27 -26 -35 -5 -43
23 -9 24 -8 18 12 -2 9 1 6 8 -6 10 -21 9 -25 -6 -34 -29 -16 -1 -26 46 -18
30 6 45 4 55 -6 22 -22 63 -18 63 6 0 12 -5 17 -13 14 -7 -2 -26 2 -41 10 -16
8 -36 12 -45 8 -13 -5 -13 -3 2 12 17 18 17 19 0 31 -15 11 -16 14 -3 18 65
20 93 24 121 18 l33 -7 -27 -25 -28 -25 21 -19 c11 -10 20 -25 20 -33 0 -10 7
-12 23 -9 12 4 29 2 37 -3 12 -8 12 -10 -3 -16 -25 -9 -21 -19 16 -32 61 -22
73 -16 170 87 18 18 49 44 70 58 21 13 35 28 31 34 -11 18 6 120 19 112 7 -3
5 2 -4 13 -8 10 -16 33 -17 49 -1 17 -11 37 -24 46 -13 10 -19 23 -15 33 5 13
0 16 -27 16 -28 0 -35 -5 -40 -24 -4 -17 -13 -24 -26 -23 -12 1 -18 7 -16 14
3 7 -2 13 -10 13 -10 0 -14 6 -11 15 4 8 2 17 -2 19 -5 3 -11 19 -14 36 -6 30
-27 43 -27 16 0 -16 -22 -26 -53 -26 -22 1 -22 1 2 21 28 23 22 36 -8 17 -15
-9 -24 -9 -31 -2 -8 8 -3 18 18 36 28 23 29 25 11 36 -33 21 -59 15 -59 -13z
m-101 -243 c-5 -2 -9 -10 -9 -17 0 -23 -18 -27 -45 -9 l-26 17 21 22 c11 12
20 28 20 36 0 8 10 1 24 -16 14 -16 20 -31 15 -33z m202 -47 c-1 -15 -24 -12
-29 3 -3 9 2 13 12 10 10 -1 17 -7 17 -13z m-68 -95 c3 -11 1 -18 -4 -14 -5 3
-9 12 -9 20 0 20 7 17 13 -6z m42 0 c-3 -5 -10 -10 -16 -10 -5 0 -9 5 -9 10 0
6 7 10 16 10 8 0 12 -4 9 -10z m32 -146 c-3 -3 -12 -4 -19 -1 -8 3 -5 6 6 6
11 1 17 -2 13 -5z"/>
<path d="M2594 6609 c-3 -6 -1 -15 6 -19 17 -10 -2 -61 -37 -98 -13 -14 -23
-30 -23 -37 0 -7 -7 -18 -15 -25 -8 -7 -15 -20 -15 -30 0 -10 -7 -23 -15 -30
-8 -7 -15 -20 -15 -29 0 -9 -4 -22 -9 -29 -13 -21 -70 8 -132 67 -59 56 -99
68 -99 28 0 -13 -5 -28 -11 -34 -9 -9 -6 -19 10 -39 22 -28 27 -59 12 -68 -5
-3 -11 -20 -14 -38 -18 -116 -39 -144 -90 -123 -18 7 -53 16 -79 20 -36 6 -57
17 -93 50 -25 24 -45 51 -45 61 0 16 -2 15 -23 -4 -13 -12 -31 -22 -40 -22
-14 0 -16 -12 -14 -90 1 -49 5 -90 10 -90 4 0 7 -10 6 -22 0 -22 -1 -22 -10
-3 -7 15 -8 9 -4 -21 4 -32 1 -45 -15 -59 -37 -33 -344 -68 -392 -45 -22 11
-22 10 -4 -4 18 -14 64 -21 121 -19 11 1 35 -2 53 -7 22 -6 30 -5 26 2 -5 8 7
9 37 5 25 -3 36 -3 24 2 -30 12 36 22 100 15 29 -4 55 -2 58 3 3 5 -11 8 -31
6 l-37 -3 35 13 c30 12 36 19 41 53 4 34 6 36 11 14 3 -14 4 -7 2 15 -3 44 15
135 27 135 5 0 13 -8 18 -17 6 -10 11 -12 11 -5 0 6 5 12 11 12 7 0 8 -14 4
-40 -5 -31 -3 -41 9 -46 9 -3 14 -9 12 -13 -2 -3 0 -17 5 -29 l9 -24 31 26
c32 27 39 29 76 27 11 -1 24 2 27 7 3 6 15 8 26 5 14 -4 22 1 29 20 5 13 17
27 26 31 9 3 14 10 10 15 -3 6 0 13 7 18 7 4 23 27 35 51 12 24 18 40 13 37
-6 -3 -10 -1 -10 5 0 6 7 13 15 16 10 4 12 11 7 22 -5 10 -4 31 2 47 10 27 15
30 53 30 49 -1 61 -9 43 -30 -11 -14 -15 -14 -36 0 -17 11 -25 12 -30 3 -4 -7
-3 -8 4 -4 8 4 16 -3 22 -18 5 -14 15 -26 21 -26 7 0 10 3 6 6 -3 3 2 14 11
24 12 14 20 16 34 9 23 -13 23 -29 0 -29 -25 0 -52 -31 -52 -58 0 -12 -5 -22
-11 -22 -7 0 -9 -9 -5 -24 3 -13 3 -26 -2 -28 -4 -2 -25 -38 -46 -80 -33 -66
-37 -80 -26 -93 12 -14 11 -18 -1 -26 -8 -5 -23 -9 -34 -9 -36 -1 -74 -49 -76
-95 -6 -144 28 -292 73 -316 11 -6 17 -13 14 -17 -6 -6 21 -17 128 -55 68 -24
71 -23 239 44 103 42 107 45 100 69 -3 14 -6 61 -6 105 0 113 37 188 136 280
40 37 82 72 95 78 31 15 25 25 -38 58 -30 15 -61 33 -68 39 -7 6 -23 13 -35
15 -12 3 -44 16 -72 29 -53 26 -129 53 -181 64 -69 15 -93 54 -57 90 7 7 13
21 13 31 0 10 9 28 20 41 11 12 17 27 14 32 -3 5 6 18 20 29 14 11 26 26 26
33 0 7 9 21 19 30 21 19 47 109 36 126 -8 13 -32 13 -41 -1z m-293 -233 c5
-19 4 -35 -3 -43 -22 -27 -55 36 -39 75 0 2 9 2 18 0 9 -2 20 -16 24 -32z
m-399 -222 c-4 -22 -6 -24 -14 -10 -9 16 -3 36 11 36 5 0 6 -12 3 -26z m-25
-96 c-2 -13 -4 -3 -4 22 0 25 2 35 4 23 2 -13 2 -33 0 -45z m533 -347 c0 -5
-7 -12 -16 -15 -24 -9 -28 -7 -14 9 14 17 30 20 30 6z"/>
<path d="M3655 6540 c3 -5 8 -10 11 -10 2 0 4 5 4 10 0 6 -5 10 -11 10 -5 0
-7 -4 -4 -10z"/>
<path d="M4510 6491 c0 -5 5 -11 10 -13 6 -2 13 -45 15 -95 4 -79 3 -92 -10
-87 -8 4 -12 10 -9 15 3 5 -4 9 -15 9 -12 0 -21 -4 -21 -8 0 -13 -60 -44 -75
-38 -7 2 -19 -2 -26 -10 -7 -9 -21 -13 -33 -10 -11 3 -27 -1 -36 -8 -8 -8 -49
-31 -90 -52 -41 -20 -88 -46 -103 -57 -15 -10 -33 -20 -40 -21 -31 -5 -97 -58
-97 -78 0 -8 -5 -19 -11 -25 -9 -9 -8 -18 5 -37 13 -21 14 -29 4 -46 -10 -16
-10 -22 1 -32 12 -11 13 -10 8 5 -4 9 -2 17 3 17 10 0 14 -21 11 -47 -1 -9 8
-11 29 -7 39 8 40 -13 2 -29 -16 -7 -51 -32 -78 -56 -27 -24 -43 -41 -36 -37
10 6 12 0 6 -29 -4 -21 -7 -70 -8 -109 l-1 -71 -49 -3 c-27 -2 -61 -11 -75
-21 -14 -10 -31 -16 -36 -14 -6 2 -38 -6 -70 -18 -33 -12 -123 -35 -200 -51
-77 -17 -145 -34 -151 -40 -7 -5 -15 -25 -19 -46 -6 -34 -8 -36 -21 -17 -8 10
-14 27 -14 38 0 10 -9 21 -20 24 -22 6 -26 18 -9 29 8 5 8 9 -1 14 -34 21 101
65 290 94 58 9 118 19 135 21 37 7 75 42 75 71 0 22 34 53 72 67 17 6 17 31 0
112 -7 35 -49 95 -65 95 -3 0 -23 11 -43 25 -20 14 -55 30 -78 36 -22 6 -63
21 -91 34 -27 12 -66 30 -86 38 -19 9 -47 28 -63 42 -15 14 -30 25 -33 25 -3
0 -20 12 -38 28 -66 55 -80 63 -100 57 -11 -4 -28 -7 -38 -8 -9 -1 -17 -5 -17
-10 2 -21 -150 -207 -169 -207 -7 0 -42 -34 -148 -147 -22 -23 -38 -45 -34
-48 3 -3 1 -9 -5 -13 -13 -9 -44 -92 -44 -117 0 -11 5 -37 11 -58 l10 -38 57
6 c31 3 73 8 93 11 32 5 41 1 74 -31 25 -26 33 -41 26 -48 -7 -7 -3 -17 15
-32 25 -21 25 -22 6 -45 l-20 -24 -37 29 c-20 17 -46 38 -58 48 -22 17 -26 17
-107 -3 -88 -22 -210 -68 -221 -84 -4 -5 -50 -10 -104 -12 -121 -3 -159 -24
-174 -94 -5 -24 -7 -48 -5 -52 3 -4 -9 -28 -25 -52 -17 -25 -31 -48 -31 -52 0
-4 -11 -21 -23 -38 -35 -46 -87 -156 -94 -199 -5 -32 -1 -43 33 -84 21 -27 42
-49 46 -51 5 -2 8 -11 8 -20 0 -12 -9 -17 -30 -18 -19 -1 -30 4 -30 12 0 8
-11 14 -26 14 -18 0 -25 4 -21 14 3 8 -2 16 -15 19 -11 3 -17 10 -13 16 3 6 1
11 -4 11 -6 0 -11 7 -11 15 0 8 -4 15 -10 15 -16 0 -12 52 9 113 21 61 50 114
117 219 24 37 50 86 58 109 14 40 14 42 -11 65 -14 13 -30 21 -35 18 -5 -3
-15 2 -22 12 -8 10 -20 15 -30 11 -9 -4 -16 -2 -16 4 0 5 -12 7 -27 3 -22 -4
-25 -3 -13 5 12 9 10 11 -12 11 -16 0 -28 4 -28 9 0 13 -71 22 -89 11 -9 -5
-12 -10 -7 -10 5 0 3 -7 -4 -15 -17 -21 -31 -9 -24 21 6 23 -9 34 -21 15 -3
-6 -26 -13 -50 -17 -29 -4 -45 -11 -45 -20 0 -8 -5 -14 -11 -14 -5 0 -7 5 -4
10 9 14 -73 2 -100 -14 -36 -22 -300 -52 -310 -35 -4 5 -17 9 -31 9 -19 0 -24
-5 -24 -25 0 -14 -4 -25 -10 -25 -5 0 -10 8 -10 18 0 9 -14 32 -31 50 -30 32
-49 41 -49 22 0 -5 4 -10 8 -10 5 0 18 -18 31 -40 12 -22 19 -40 16 -40 -4 0
3 -8 16 -19 20 -16 21 -21 10 -35 -7 -8 -29 -18 -50 -22 -49 -9 -132 -33 -156
-46 -47 -26 -215 -79 -267 -85 -32 -3 -62 -11 -67 -17 -15 -19 -24 -76 -12
-76 6 0 11 5 11 10 0 12 60 13 79 1 8 -5 11 -16 6 -29 -3 -12 1 -62 9 -112 20
-113 20 -154 1 -170 -8 -7 -15 -9 -15 -4 0 5 -12 -3 -28 -18 -54 -53 -128
-113 -157 -129 -38 -21 -89 -33 -81 -20 11 17 -16 17 -49 1 -43 -20 -62 -63
-44 -97 l13 -25 17 21 c10 12 21 21 26 21 15 -1 80 -65 76 -76 -2 -6 6 -14 18
-17 11 -3 18 -10 15 -15 -3 -6 5 -24 20 -41 17 -21 23 -37 19 -51 -3 -11 -2
-20 3 -20 8 0 27 -34 50 -90 24 -58 24 -58 -30 -70 -70 -15 -115 -44 -123 -80
-9 -39 1 -53 26 -40 24 13 88 3 112 -18 14 -13 16 -25 11 -72 -4 -44 -2 -64
10 -82 19 -28 14 -36 -92 -180 -72 -97 -88 -114 -135 -149 -38 -29 -26 -36 16
-10 43 26 94 83 177 197 89 121 239 277 259 268 55 -23 159 -61 236 -86 119
-39 215 -79 215 -90 0 -4 -4 -8 -8 -8 -12 0 -52 -39 -52 -50 0 -15 16 -12 71
12 35 15 46 24 37 29 -10 7 -9 9 5 9 20 0 21 12 6 60 -6 19 -12 50 -14 69 -2
19 -9 37 -15 41 -11 7 -4 40 9 40 21 0 67 -70 69 -105 2 -21 6 -43 10 -49 3
-6 8 -31 10 -56 4 -65 61 -214 91 -236 11 -9 8 -13 -19 -22 -39 -14 -50 -15
-31 -3 11 7 9 11 -9 21 -19 10 -26 8 -49 -14 -21 -20 -34 -24 -66 -21 -22 2
-51 -3 -67 -11 -22 -11 -37 -12 -74 -4 -43 10 -48 9 -71 -14 -17 -17 -23 -31
-18 -45 3 -10 1 -22 -5 -26 -5 -3 -10 -18 -10 -32 0 -18 -4 -24 -15 -20 -21 8
-105 -41 -105 -62 0 -9 -9 -23 -20 -31 -10 -8 -22 -28 -25 -44 -10 -50 -37
-120 -54 -140 -9 -10 -28 -24 -43 -32 -30 -16 -37 -34 -13 -34 21 0 19 -12 -6
-34 -19 -16 -24 -16 -51 -3 -17 8 -40 12 -52 9 -18 -5 -17 -7 12 -14 17 -5 32
-13 32 -19 0 -6 13 -8 33 -4 17 3 39 1 47 -4 12 -8 12 -12 -3 -29 -25 -27 -21
-42 12 -42 16 0 31 -6 35 -15 6 -17 42 -20 51 -5 3 6 13 10 21 10 13 0 13 -3
0 -22 -21 -30 -20 -45 3 -53 25 -8 34 -31 21 -56 -6 -10 -8 -19 -6 -19 10 0
36 59 39 89 6 53 55 87 55 39 -1 -50 20 -115 46 -142 l27 -30 -26 -23 c-14
-13 -25 -30 -25 -38 0 -8 -7 -15 -15 -15 -25 0 -113 -91 -121 -124 -5 -17 -7
-35 -5 -41 1 -5 -4 -14 -12 -20 -11 -8 1 -10 47 -7 50 3 68 0 99 -18 33 -19
37 -26 37 -62 0 -26 4 -37 11 -32 7 4 9 27 6 63 -8 97 23 239 64 286 9 11 27
40 40 64 l22 43 51 -7 c80 -12 324 -15 350 -5 24 9 76 58 76 71 0 4 27 36 61
71 33 34 83 90 111 123 64 75 93 98 116 91 10 -4 48 -37 85 -74 67 -69 78 -96
53 -132 -6 -8 -7 -12 -2 -8 17 15 63 -67 58 -102 -3 -13 -2 -13 7 0 8 12 12
10 19 -11 20 -51 17 -84 -10 -119 -24 -32 -26 -41 -21 -97 4 -44 2 -63 -6 -63
-6 0 -11 5 -11 10 0 7 -7 7 -21 -1 -16 -8 -18 -13 -9 -19 9 -5 6 -12 -10 -23
-15 -11 -18 -16 -8 -20 9 -3 6 -10 -10 -22 -12 -9 -19 -21 -16 -27 4 -6 0 -14
-7 -19 -21 -13 -39 -11 -33 5 4 10 -2 12 -23 8 -15 -3 -22 -7 -15 -10 10 -3 8
-10 -8 -27 -16 -17 -18 -25 -9 -31 7 -4 15 -2 17 4 4 14 66 42 93 42 25 0 19
-37 -12 -79 -13 -18 -23 -37 -21 -42 1 -5 -5 -12 -13 -15 -8 -4 -15 -17 -15
-29 0 -18 -7 -25 -30 -30 -39 -8 -50 0 -50 36 0 31 -14 37 -42 15 -19 -14 -25
-82 -8 -88 14 -4 0 -48 -15 -48 -7 0 -37 -11 -66 -24 -30 -13 -64 -27 -76 -30
-19 -6 -20 -4 -13 26 4 18 17 51 29 73 25 46 27 112 6 142 -9 12 -15 26 -14
30 3 20 -3 35 -31 67 -17 18 -37 49 -46 67 -30 64 -39 79 -46 79 -5 0 -8 7 -8
15 0 21 -28 75 -39 75 -5 0 -11 -9 -14 -21 -3 -11 -14 -23 -25 -26 -11 -3 -26
-22 -36 -45 -13 -35 -18 -39 -31 -28 -10 8 -15 9 -15 1 0 -6 -15 -11 -33 -11
-28 0 -33 -4 -35 -27 -3 -35 -9 -40 -33 -25 -18 11 -23 10 -38 -7 -14 -16 -26
-20 -49 -15 -37 7 -92 -22 -92 -48 0 -10 3 -18 8 -18 4 0 16 -13 27 -29 l19
-30 15 31 c16 34 37 46 52 31 7 -7 6 -18 -3 -33 -10 -18 -10 -24 0 -27 18 -7
15 -38 -5 -54 -25 -21 -64 -38 -93 -41 -19 -2 -26 -11 -31 -38 -4 -19 -3 -40
2 -46 5 -7 -2 -18 -21 -33 -30 -21 -41 -66 -20 -73 6 -2 -15 -17 -47 -33 -42
-22 -57 -35 -55 -48 2 -9 7 -17 12 -17 5 0 7 6 4 14 -14 37 161 54 224 22 18
-9 37 -14 42 -11 5 3 30 -1 55 -10 25 -8 56 -15 69 -15 13 0 40 -7 60 -15 l37
-16 -43 -45 c-46 -48 -67 -80 -68 -103 0 -22 60 -70 97 -77 30 -6 32 -9 27
-33 -4 -14 -11 -34 -15 -43 -5 -9 -9 -26 -9 -37 0 -18 6 -21 38 -21 31 0 41 5
55 29 9 16 34 40 55 52 20 13 43 29 50 35 18 18 53 27 63 17 5 -5 16 -47 25
-93 8 -47 18 -96 20 -108 3 -16 10 -22 19 -18 8 3 17 0 21 -6 4 -7 3 -8 -4 -4
-7 4 -12 2 -12 -3 0 -6 5 -11 10 -11 6 0 10 -9 10 -20 0 -11 4 -28 9 -38 5 -9
14 -28 20 -42 10 -24 10 -24 4 5 -3 17 -10 35 -15 42 -5 7 -8 20 -5 30 4 15 5
15 6 -2 0 -12 7 -27 14 -34 7 -7 12 -40 12 -87 -1 -40 0 -74 2 -74 1 0 8 11
16 25 11 22 15 24 30 13 9 -7 18 -25 19 -40 3 -32 13 -36 22 -11 6 15 8 15 16
3 6 -9 5 -17 -3 -22 -7 -4 2 -8 21 -8 29 0 31 2 20 19 -9 15 -9 23 2 38 13 16
13 16 -8 -1 -12 -11 -22 -14 -22 -8 0 17 36 33 56 25 11 -4 15 -2 11 4 -11 17
123 33 157 18 13 -6 17 -5 12 3 -4 7 9 15 36 23 24 6 47 14 52 17 5 3 6 0 2
-7 -4 -6 7 -4 27 5 49 23 64 14 75 -48 l10 -53 -1 49 c-1 35 -7 56 -21 70 -17
17 -17 19 -2 13 10 -4 20 -7 22 -7 2 0 4 -7 4 -15 0 -9 9 -15 23 -15 14 0 18
-3 10 -8 -10 -6 -9 -20 6 -62 13 -38 20 -48 24 -34 4 17 5 16 6 -3 0 -12 -5
-28 -13 -36 -12 -11 -11 -15 5 -25 24 -15 25 -33 2 -25 -13 4 -11 -1 7 -20 24
-24 28 -25 97 -16 40 5 87 18 105 28 18 11 47 22 64 26 17 3 47 17 65 31 29
21 35 22 44 10 58 -84 90 -124 96 -120 4 2 11 -1 15 -7 4 -8 3 -9 -4 -5 -16 9
-15 1 2 -32 25 -50 29 -72 12 -72 -10 0 -13 -6 -10 -15 7 -17 13 -18 34 -5 12
8 13 13 3 30 -7 11 -13 25 -13 32 0 7 9 -4 20 -25 13 -25 20 -58 21 -99 l1
-63 12 55 c6 30 17 64 23 75 11 17 14 18 23 5 5 -8 10 -10 11 -5 0 6 5 -3 9
-19 5 -16 6 -41 3 -57 -3 -16 -3 -36 1 -45 5 -13 13 -8 41 27 27 35 31 45 19
47 -13 3 -14 11 -9 40 4 21 9 39 11 42 3 2 35 4 72 3 37 0 52 2 35 4 -47 6
-41 23 7 23 27 0 43 -5 46 -15 9 -22 24 -18 24 5 0 20 0 20 21 -1 29 -29 35
-16 9 19 -20 26 -27 29 -61 25 -25 -4 -39 -2 -39 6 0 6 5 11 10 11 6 0 10 9
10 20 0 13 -10 22 -32 29 -24 7 -27 9 -11 10 22 1 123 -72 123 -89 0 -5 9 -12
20 -15 11 -4 17 -11 14 -17 -5 -7 -1 -9 9 -5 11 4 17 1 17 -9 0 -8 11 -19 24
-24 25 -9 42 -42 31 -60 -3 -5 1 -10 9 -10 9 0 16 -6 16 -14 0 -14 45 -56 60
-56 25 0 52 39 54 76 1 38 29 104 44 104 4 0 15 12 24 28 26 43 140 162 171
179 24 12 34 12 58 3 16 -7 29 -15 29 -19 0 -7 31 -40 94 -99 35 -33 53 -43
74 -40 25 3 27 6 22 38 -11 88 -1 207 21 234 14 17 20 19 30 8 7 -6 21 -12 30
-12 10 0 33 -9 51 -20 20 -12 67 -23 117 -29 46 -5 88 -14 94 -20 6 -6 25 -11
41 -11 17 0 42 -9 56 -20 14 -11 30 -20 37 -20 7 0 10 -7 6 -16 -3 -8 -12 -13
-19 -10 -7 3 -16 1 -19 -4 -3 -4 6 -7 20 -5 17 1 31 -5 40 -17 14 -21 40 -16
29 5 -4 7 7 -4 24 -23 25 -29 33 -33 49 -24 21 13 40 141 23 158 -23 23 1 139
41 198 11 14 19 34 19 44 0 9 6 25 13 33 16 20 53 115 62 158 11 54 28 60 100
35 69 -24 100 -27 110 -13 3 6 -4 38 -16 73 -16 48 -20 76 -15 118 16 141 29
150 232 152 131 2 218 -13 288 -47 28 -15 111 -11 88 4 -5 3 -17 23 -25 43 -9
21 -20 38 -25 38 -17 0 -62 76 -62 106 0 16 5 46 11 67 10 36 11 37 57 37 44
0 153 31 177 50 18 14 123 22 144 11 13 -7 33 -8 58 -2 21 5 32 9 26 10 -16 1
-53 37 -53 50 0 6 16 3 35 -5 19 -8 35 -10 35 -5 0 27 -21 59 -44 65 -13 3
-28 16 -32 28 -3 12 -13 28 -20 36 -8 7 -14 26 -14 41 0 25 -11 67 -28 111 -3
8 -7 29 -9 47 -2 17 -10 44 -18 60 -8 15 -15 34 -15 40 0 21 -53 147 -64 155
-6 4 7 8 29 9 40 1 40 1 10 10 -16 5 -40 7 -52 4 -29 -7 -39 12 -19 34 22 24
20 31 -8 31 -14 0 -28 5 -31 10 -3 6 -15 10 -26 10 -20 0 -27 26 -9 32 15 5
-7 65 -26 72 -8 3 -14 17 -14 31 0 34 -38 85 -59 79 -9 -3 -4 2 12 11 15 8 27
22 27 30 0 28 -20 65 -35 65 -8 0 -15 5 -15 10 0 6 4 10 9 10 18 0 21 63 5 88
-17 26 -24 95 -11 108 9 9 96 -86 97 -106 0 -9 7 -25 15 -37 8 -11 16 -42 19
-69 2 -27 9 -50 14 -52 6 -2 8 -12 5 -22 -3 -11 2 -42 11 -69 9 -28 16 -56 16
-63 0 -8 9 -21 20 -31 11 -9 20 -26 20 -37 0 -10 10 -25 23 -32 12 -7 22 -20
22 -28 0 -8 8 -16 18 -18 16 -3 17 -1 5 20 -7 12 -21 29 -30 36 -12 8 -18 27
-18 50 0 32 5 40 34 56 39 21 117 95 161 152 98 129 283 274 348 274 27 0 49
21 29 28 -13 4 -6 48 11 70 8 10 2 21 -22 45 -30 30 -33 31 -43 14 -8 -15 -17
-18 -45 -12 -19 3 -40 11 -47 16 -6 5 -20 16 -30 23 -27 19 -16 50 44 120 28
32 49 61 46 63 -2 2 -21 -7 -43 -20 -31 -20 -40 -22 -51 -11 -18 20 -15 30 19
59 23 19 33 36 35 63 3 44 -3 56 -20 39 -8 -6 -12 -15 -9 -19 6 -10 -5 -10
-42 1 -21 5 -34 4 -41 -4 -12 -12 -84 -8 -84 5 0 5 9 6 20 3 14 -4 20 0 20 12
0 11 -6 15 -17 11 -63 -18 -73 -18 -73 0 0 16 -8 19 -46 21 -25 1 -51 6 -58
12 -7 6 -26 9 -42 5 -18 -3 -37 0 -49 9 -16 13 -18 20 -10 53 9 37 12 39 50
40 38 1 128 35 139 52 5 8 -53 104 -66 110 -5 2 -8 12 -8 23 0 10 -3 18 -7 17
-5 -1 -25 5 -45 15 -21 9 -53 24 -72 32 -20 9 -59 14 -100 13 -63 -2 -67 -4
-72 -28 -3 -14 -8 -32 -11 -40 -2 -8 -7 -36 -9 -62 -5 -53 10 -66 20 -17 5 28
8 30 23 18 12 -11 17 -11 20 -2 4 10 12 9 34 -3 26 -13 29 -19 26 -50 -2 -19
-9 -40 -15 -46 -7 -7 -12 -22 -12 -34 0 -12 -10 -35 -22 -51 -13 -15 -28 -37
-34 -48 -13 -23 -53 -32 -64 -14 -6 8 -13 2 -23 -18 -11 -21 -13 -33 -6 -40 8
-8 6 -19 -7 -37 -13 -20 -14 -30 -5 -39 6 -6 11 -18 11 -27 0 -21 -35 -54 -49
-46 -5 4 -28 -6 -50 -21 -31 -22 -38 -33 -34 -50 5 -23 -3 -28 -31 -17 -21 8
-21 24 0 24 10 0 14 6 11 14 -3 7 8 27 25 42 38 37 58 75 58 113 0 16 4 32 9
36 5 3 9 22 9 43 -1 48 11 192 17 202 2 4 -1 22 -8 39 -10 28 -10 34 6 45 9 7
17 18 17 24 0 6 9 27 21 46 12 20 16 36 10 36 -16 0 -13 26 5 41 10 8 18 9 22
2 12 -18 52 -25 67 -13 9 8 26 9 42 5 16 -4 66 -13 112 -20 71 -12 88 -19 111
-43 15 -17 34 -32 43 -33 31 -7 124 -94 156 -147 19 -30 49 -63 67 -74 19 -11
34 -23 34 -27 0 -4 16 -15 35 -24 19 -9 35 -13 35 -8 0 4 -8 12 -19 17 -15 8
-48 42 -111 121 -6 7 -10 16 -10 21 0 5 -18 27 -39 50 -39 41 -39 41 -36 114
2 40 6 80 10 89 4 11 -5 28 -27 49 -18 18 -33 45 -34 59 -1 14 -3 26 -4 26 -1
0 -3 8 -5 17 -2 9 6 24 16 34 23 21 24 52 3 82 -15 22 -44 30 -44 12 0 -5 9
-10 20 -10 11 0 20 -3 21 -7 0 -5 3 -20 5 -35 4 -21 -1 -30 -26 -44 -34 -21
-36 -27 -14 -48 14 -15 14 -17 0 -22 -24 -9 -19 -34 7 -35 18 -1 18 -2 4 -6
-10 -3 -26 2 -36 11 -10 9 -21 13 -26 9 -9 -8 -7 -4 14 39 11 22 12 30 1 43
-10 12 -10 15 0 15 9 0 10 3 1 14 -8 10 -8 16 2 24 7 6 14 28 15 48 2 21 10
43 19 49 9 7 13 17 9 24 -4 6 -2 20 6 29 12 15 11 16 -5 3 -11 -9 -15 -21 -12
-35 5 -18 5 -19 -5 -4 -7 12 -8 24 -2 35 11 20 28 120 24 143 -3 27 20 61 39
55 12 -4 18 1 23 18 3 13 17 40 31 61 30 45 32 77 5 94 -20 12 -35 11 -119
-10 -38 -10 -45 -9 -53 6 -5 9 -14 14 -19 10 -6 -3 -13 4 -16 16 -3 12 -9 17
-12 11 -8 -12 -141 26 -141 40 0 4 -15 5 -33 2 -23 -3 -37 0 -46 11 -7 9 -19
16 -25 16 -26 0 -43 37 -40 86 10 127 11 150 6 162 -6 16 -40 6 -69 -20 -16
-16 -29 -18 -55 -13 -36 7 -118 51 -118 63 0 4 -17 18 -37 32 -67 46 -66 43
-58 159 10 152 10 154 23 178 7 12 20 26 29 31 9 6 18 17 19 27 2 15 1 15 -17
-1 -25 -22 -48 -26 -64 -11 -10 10 -9 18 7 40 19 27 19 29 3 48 -10 10 -25 19
-33 19 -13 0 -13 -3 1 -18 24 -26 22 -29 -25 -51 -24 -12 -63 -32 -87 -46 -24
-13 -47 -23 -51 -20 -9 5 -19 59 -26 135 -3 30 -14 71 -24 92 -20 41 -16 83 6
74 18 -7 18 5 -1 40 -8 16 -15 38 -15 49 0 11 -4 26 -9 34 -6 10 -13 6 -27
-18 -19 -33 -29 -38 -39 -21 -12 19 -31 10 -49 -24 -20 -37 -38 -46 -102 -51
-23 -2 -54 -11 -68 -20 -33 -22 -35 -62 -3 -75 20 -8 19 -10 -8 -15 -5 -1 -24
-5 -40 -9 -20 -4 -44 -1 -68 9 -56 23 -79 19 -119 -22 -42 -43 -63 -101 -34
-90 10 4 19 7 22 7 2 0 1 6 -2 14 -6 16 27 25 91 25 36 0 40 -3 40 -23 -1 -12
-5 -27 -9 -34 -12 -19 -25 -4 -18 21 5 20 4 21 -14 7 -10 -8 -24 -22 -30 -30
-7 -9 -26 -13 -48 -12 -26 2 -36 -1 -36 -12 0 -8 -6 -17 -12 -20 -7 -3 -4 -4
6 -3 26 3 32 -20 7 -28 -13 -4 -28 3 -48 22 -34 34 -133 182 -133 199 0 7 28
28 63 47 61 34 84 40 322 77 88 14 169 44 207 75 16 14 33 25 38 25 4 0 11 7
14 16 5 13 1 15 -18 10 -55 -14 -81 -27 -68 -35 19 -12 -6 -29 -50 -35 -20 -2
-44 -9 -55 -14 -10 -5 -44 -12 -75 -16 -133 -15 -329 -64 -354 -88 -8 -9 -40
22 -48 47 -3 11 -10 54 -16 95 -9 67 -20 89 -42 90 -5 0 -8 -4 -8 -9z m808
-368 c-1 -5 6 -34 16 -66 10 -32 16 -61 13 -63 -3 -3 1 -25 9 -50 7 -25 10
-43 6 -40 -4 2 -8 -4 -8 -14 0 -10 3 -18 6 -18 26 2 11 -22 -22 -34 -11 -5
-15 -14 -11 -30 8 -33 22 -48 39 -41 24 9 15 -17 -16 -45 -16 -15 -33 -42 -36
-60 -7 -35 1 -40 26 -17 15 14 18 14 30 0 7 -8 28 -15 49 -15 86 0 179 -27
213 -61 9 -8 41 -21 71 -29 31 -7 54 -17 51 -22 -3 -4 6 -8 20 -8 14 0 26 -4
26 -10 0 -14 31 0 68 32 34 29 62 37 62 16 0 -22 -14 -34 -38 -32 -15 1 -31
-9 -45 -28 -12 -16 -35 -42 -51 -58 -17 -17 -26 -35 -23 -44 4 -9 -1 -17 -14
-21 -22 -7 -33 -1 -35 18 0 7 -2 20 -2 30 -1 10 -10 17 -22 17 -11 0 -27 11
-36 25 -11 17 -25 25 -44 25 -15 0 -33 7 -41 16 -7 9 -22 14 -36 11 -12 -2
-20 -1 -18 3 2 4 -7 5 -20 2 -16 -3 -24 -10 -23 -20 2 -12 -8 -18 -35 -23 -20
-3 -40 -8 -43 -12 -9 -8 7 -97 18 -97 5 0 7 -9 3 -19 -3 -11 -1 -22 4 -26 13
-7 3 -65 -15 -86 -16 -18 -18 -39 -4 -39 6 0 10 -5 10 -12 0 -9 -3 -9 -12 0
-7 7 -27 12 -45 12 -36 0 -46 23 -16 34 27 11 -5 26 -39 19 -30 -6 -37 7 -14
26 11 10 20 10 38 0 l23 -12 -20 23 c-18 20 -26 22 -80 16 -35 -3 -54 -2 -46
3 18 11 4 17 -44 16 -39 0 -85 31 -85 57 0 6 -9 8 -22 3 -62 -18 -76 -16 -87
17 -6 17 -11 39 -11 49 0 13 -7 19 -23 19 -19 0 -26 -8 -35 -38 -10 -31 -16
-38 -41 -40 -19 -1 -31 3 -35 14 -5 13 -15 15 -49 11 -28 -4 -48 -1 -61 9 -11
8 -29 14 -40 14 -23 0 -79 19 -113 38 -21 12 -83 6 -83 -8 0 -4 -15 -15 -32
-24 -28 -13 -29 -16 -11 -16 12 0 25 -5 28 -10 4 -6 11 -8 16 -5 5 4 9 2 9 -3
0 -16 -13 -22 -25 -12 -17 14 -40 4 -55 -26 -7 -13 -17 -24 -22 -24 -4 0 -8
-9 -8 -20 0 -15 -9 -22 -30 -27 -21 -4 -29 -11 -28 -22 3 -13 -6 -16 -46 -14
-27 1 -52 6 -55 11 -3 5 -19 13 -36 19 -19 6 -31 17 -33 30 -4 24 -29 38 -46
24 -14 -11 -60 24 -51 39 4 6 -5 10 -22 10 -21 1 -38 13 -68 51 -22 27 -39 54
-37 60 2 7 -4 9 -13 6 -17 -7 -21 8 -4 18 5 4 18 0 27 -8 9 -8 44 -30 77 -48
33 -18 62 -36 65 -39 3 -3 23 -14 45 -24 22 -9 48 -22 58 -27 26 -14 56 14 54
49 -2 20 5 30 26 40 23 11 31 22 29 42 0 3 12 21 28 40 28 35 30 35 107 35 65
0 88 -5 135 -27 31 -16 60 -28 63 -28 4 0 20 -9 36 -21 23 -16 38 -19 64 -15
18 4 36 2 39 -3 8 -12 65 -11 73 2 3 5 11 60 19 122 10 93 10 123 -1 176 -7
35 -11 67 -9 71 2 3 -12 23 -31 44 -31 33 -34 39 -21 52 22 22 45 9 39 -22 -5
-26 10 -36 22 -16 9 15 25 12 25 -5 0 -9 8 -19 18 -22 9 -4 27 -17 40 -30 l22
-24 0 23 c0 13 -5 29 -12 36 -9 9 -9 12 0 12 7 0 11 3 11 8 -3 20 2 32 16 32
8 0 15 7 15 15 0 17 25 20 35 5 3 -5 1 -10 -4 -10 -6 0 -11 -9 -11 -20 0 -47
67 -3 75 49 1 13 13 16 59 15 31 -1 60 -5 63 -8 4 -3 12 -6 19 -6 19 0 5 38
-17 45 -26 9 -12 28 16 23 15 -3 28 3 41 19 40 50 57 64 52 46z m-337 -95
c-10 -24 -25 -44 -34 -46 -18 -4 -24 23 -7 33 6 3 10 15 10 26 0 11 5 17 10
14 6 -3 10 -1 10 4 0 6 7 11 15 11 12 0 11 -7 -4 -42z m-36 -68 c3 -5 1 -10
-4 -10 -6 0 -11 5 -11 10 0 6 2 10 4 10 3 0 8 -4 11 -10z m959 -613 c11 -12
21 -29 21 -36 0 -16 10 -22 90 -52 67 -26 95 -50 67 -60 -9 -3 -45 -5 -79 -5
-34 1 -60 -1 -58 -5 2 -3 -2 -17 -10 -32 -8 -17 -10 -29 -4 -33 6 -3 9 -13 8
-22 -4 -46 17 -68 59 -63 8 1 24 -5 37 -13 14 -9 31 -16 40 -16 8 0 15 -4 15
-9 0 -5 13 -12 28 -16 16 -3 44 -21 62 -40 32 -33 33 -33 56 -17 18 13 23 27
24 59 0 23 5 45 10 48 6 3 10 19 10 34 0 21 -8 32 -39 49 -21 12 -48 22 -60
22 -26 0 -28 26 -2 39 10 6 43 10 72 10 30 -1 70 2 89 6 23 4 41 1 54 -8 18
-13 17 -17 -32 -78 -45 -56 -52 -70 -52 -109 0 -56 -6 -64 -52 -79 -20 -7 -39
-19 -42 -27 -10 -26 -7 -44 7 -44 7 0 22 -6 32 -14 19 -14 19 -15 0 -91 -21
-87 -31 -95 -119 -97 -110 -2 -202 25 -190 56 3 8 11 13 17 11 16 -6 44 16 50
40 4 17 5 17 6 -4 1 -19 4 -21 16 -11 8 6 18 9 23 6 12 -7 64 44 59 58 -2 6
-15 13 -28 16 -43 10 -100 43 -95 57 13 33 -20 20 -62 -25 -64 -67 -77 -91
-57 -98 14 -6 14 -8 -1 -25 -9 -11 -23 -19 -31 -19 -24 0 -13 -30 26 -70 28
-28 38 -46 34 -60 -7 -26 13 -26 52 0 41 27 45 26 45 -21 l0 -41 -35 6 c-46 9
-75 0 -75 -23 0 -31 -22 -39 -97 -37 -40 0 -73 2 -73 3 0 1 5 14 10 29 8 21 8
30 -2 36 -10 8 -10 11 0 15 21 8 14 32 -9 26 -15 -4 -22 0 -26 16 -3 11 -9 18
-14 15 -5 -3 -6 1 -4 8 3 8 -1 22 -9 33 -14 18 -15 18 -16 3 0 -10 -4 -18 -10
-18 -5 0 -7 -7 -4 -15 4 -8 2 -15 -4 -15 -12 0 -22 24 -22 51 0 11 -14 28 -32
39 -18 11 -32 23 -31 27 3 7 -4 9 -48 12 -9 1 -19 10 -22 21 -3 11 -14 20 -25
20 -10 0 -27 9 -37 20 -10 11 -26 20 -37 20 -10 0 -27 5 -37 12 -15 9 -32 9
-75 -2 -40 -9 -60 -10 -67 -3 -16 16 -6 47 16 51 11 2 36 11 55 20 58 28 211
19 305 -18 73 -29 104 -49 151 -98 31 -31 59 -52 67 -49 7 3 28 36 47 73 32
65 33 72 29 158 -8 205 -4 314 14 334 16 18 16 20 -3 44 -10 14 -16 28 -13 32
10 10 14 8 37 -17z m-4496 -196 c14 -21 17 -55 18 -206 0 -197 10 -263 53
-335 14 -25 34 -62 45 -82 10 -20 33 -50 50 -67 l32 -31 52 54 c66 69 111 79
176 41 23 -14 51 -25 62 -25 10 0 24 -4 31 -8 6 -4 -26 -7 -72 -7 l-84 0 -45
-44 c-25 -24 -43 -48 -41 -51 3 -4 -9 -26 -25 -49 -17 -22 -30 -47 -30 -54 0
-21 -59 -127 -97 -174 -19 -24 -48 -46 -69 -53 -24 -8 -34 -17 -30 -26 3 -8 0
-14 -6 -14 -7 0 -6 -5 2 -15 7 -9 9 -19 5 -23 -4 -4 -10 -1 -12 6 -3 6 -14 12
-26 12 -12 0 -31 7 -41 15 -11 8 -28 15 -37 15 -24 0 -32 16 -24 48 4 17 9 22
14 14 6 -10 15 -10 42 0 84 29 141 88 78 80 -14 -2 -38 2 -54 8 -16 6 -26 8
-22 4 10 -10 -22 -44 -42 -45 -11 0 -12 -2 -3 -6 10 -4 9 -8 -5 -19 -27 -20
-33 -17 -33 20 0 27 5 36 22 42 22 7 22 7 -6 29 -26 21 -28 27 -22 65 4 28 2
47 -6 57 -10 12 -6 19 21 40 25 20 30 28 19 35 -10 7 -10 11 0 15 25 10 12 25
-17 20 -21 -5 -31 -2 -35 10 -4 9 -1 20 5 24 16 9 4 39 -16 39 -17 0 -21 25
-5 35 6 3 10 17 10 29 0 13 7 29 15 36 9 7 13 21 10 31 -4 11 -2 19 4 19 6 0
11 4 11 10 0 28 -158 -48 -159 -77 -1 -7 -7 -13 -15 -13 -15 0 -58 -53 -54
-67 4 -17 -14 -93 -22 -93 -5 0 -8 -12 -6 -27 1 -16 -4 -38 -12 -50 -15 -24
-54 -32 -51 -10 5 39 -1 43 -93 56 -168 25 -168 25 -168 6 0 -14 -3 -15 -15
-5 -8 7 -12 17 -8 24 4 6 -1 5 -10 -3 -15 -12 -20 -12 -35 1 -9 9 -29 18 -45
22 -15 3 -27 10 -27 15 0 10 84 41 112 41 11 0 40 10 66 22 26 12 49 22 52 22
3 1 41 38 85 84 71 75 79 87 77 119 -2 25 5 45 23 69 14 19 30 34 35 34 13 0
60 41 60 52 0 5 -11 14 -25 20 -14 6 -25 17 -25 25 0 7 -4 13 -9 13 -18 0 -21
37 -6 79 8 23 11 40 6 37 -4 -3 -20 -7 -34 -10 -38 -7 -24 11 16 20 42 10 38
9 67 21 35 15 194 67 263 87 31 9 58 22 58 29 1 7 4 1 6 -12 3 -14 12 -36 21
-50z m2164 15 c40 -8 93 -21 118 -29 37 -12 40 -15 18 -16 -15 -1 -51 -10 -80
-20 -104 -37 -382 -79 -338 -51 12 8 12 10 -4 16 -9 4 -22 17 -27 30 -5 16
-17 24 -31 24 -13 0 -33 3 -46 6 -21 6 -22 4 -17 -19 5 -19 2 -32 -11 -44 -23
-24 -114 -62 -131 -56 -8 3 -13 0 -11 -7 5 -21 -115 -105 -198 -139 -43 -18
-96 -44 -116 -57 -21 -13 -38 -21 -38 -18 0 6 75 87 165 178 61 62 195 166
238 185 49 22 108 28 279 30 101 1 182 -4 230 -13z m1462 -22 c4 -10 1 -14 -6
-12 -15 5 -23 28 -10 28 5 0 13 -7 16 -16z m636 -38 c0 -11 -19 -15 -25 -6 -3
5 1 10 9 10 9 0 16 -2 16 -4z m410 -6 c0 -5 -5 -10 -11 -10 -5 0 -7 5 -4 10 3
6 8 10 11 10 2 0 4 -4 4 -10z m-2815 -60 c-3 -5 -13 -10 -21 -10 -8 0 -12 5
-9 10 3 6 13 10 21 10 8 0 12 -4 9 -10z m2355 -10 c0 -5 -7 -10 -16 -10 -8 0
-12 5 -9 10 3 6 10 10 16 10 5 0 9 -4 9 -10z m-1199 -92 c58 -42 305 -292 335
-340 14 -22 27 -61 30 -92 6 -52 5 -54 -23 -68 l-30 -15 5 48 c4 39 1 50 -12
55 -9 3 -16 12 -16 20 0 8 -4 14 -9 14 -13 0 -24 -34 -12 -38 6 -2 11 -8 11
-13 0 -5 -24 -7 -57 -3 -65 7 -95 31 -128 103 -10 24 -25 41 -34 41 -18 0 -51
33 -51 51 0 5 -7 24 -17 42 -9 18 -20 46 -24 62 -4 17 -14 56 -23 88 -24 86
-14 95 55 45z m-374 -38 c33 -14 53 -29 57 -43 12 -44 8 -50 -26 -42 -59 12
-138 17 -156 9 -12 -5 -5 -9 27 -15 24 -5 46 -10 48 -13 10 -9 -14 -37 -47
-55 l-35 -18 -53 43 c-30 24 -59 44 -65 44 -6 0 -43 16 -84 36 -81 41 -95 64
-35 64 20 0 44 5 52 11 9 6 62 9 140 6 100 -4 136 -9 177 -27z m-1501 -19 c-3
-4 -10 -38 -16 -75 -6 -37 -15 -75 -19 -84 -5 -9 -21 -42 -36 -72 -47 -95
-119 -179 -223 -257 -33 -25 -43 -59 -32 -108 4 -18 4 -39 -1 -46 -4 -8 -4
-16 0 -19 14 -10 -6 -175 -33 -261 -14 -47 -26 -95 -26 -108 0 -36 -22 -19
-38 30 -11 33 -15 99 -16 259 0 118 1 229 3 245 2 17 1 37 -2 45 -5 11 4 21
30 35 26 14 51 42 80 90 24 38 39 71 34 73 -15 5 -1 32 16 32 8 0 54 40 102
88 101 104 160 154 172 146 5 -3 7 -9 5 -13z m3409 -71 c-3 -5 -11 -10 -16
-10 -6 0 -7 5 -4 10 3 6 11 10 16 10 6 0 7 -4 4 -10z m-2783 -165 c-3 -11 -13
-32 -24 -47 -10 -14 -18 -33 -18 -41 0 -9 -8 -18 -18 -22 -20 -6 -82 -86 -82
-105 0 -6 -19 -20 -43 -30 -23 -10 -52 -29 -63 -42 -37 -41 -99 -141 -137
-220 -44 -91 -63 -109 -54 -52 4 21 9 73 12 114 16 216 29 306 49 337 12 18
26 33 33 33 6 0 13 3 15 8 7 16 136 73 177 77 24 2 45 5 46 7 2 2 28 3 58 3
49 0 53 -2 49 -20z m2468 -75 c0 -12 -28 -25 -36 -17 -9 9 6 27 22 27 8 0 14
-5 14 -10z m-2078 -42 c32 -31 26 -66 -15 -83 -20 -8 -36 -10 -43 -4 -6 5 -52
10 -102 11 -102 3 -104 10 -20 52 36 18 56 23 67 16 12 -6 26 -3 47 11 37 24
38 24 66 -3z m1106 -93 c-2 -2 -15 -6 -31 -10 -36 -9 -36 10 1 29 24 13 27 13
30 -1 2 -8 2 -16 0 -18z m-3478 9 c0 -8 5 -12 10 -9 15 9 28 -35 20 -65 -5
-19 -15 -26 -46 -31 -48 -8 -51 -6 -32 23 13 20 13 25 1 37 -13 11 -11 16 8
37 26 28 39 31 39 8z m3496 -21 c-15 -14 -25 -32 -22 -39 2 -6 -1 -17 -7 -23
-15 -15 12 -35 29 -21 7 7 15 2 22 -15 9 -19 9 -25 0 -25 -6 0 -9 -2 -7 -5 8
-7 49 7 49 17 0 6 -7 8 -15 4 -22 -8 -19 18 5 39 11 10 22 26 25 36 13 41 32
18 44 -50 19 -121 9 -216 -31 -273 -10 -14 -18 -33 -18 -41 0 -29 -12 -47 -31
-47 -13 0 -19 7 -19 24 0 13 -6 26 -14 29 -8 3 -17 20 -21 38 -4 19 -11 40
-16 49 -19 34 -46 120 -38 120 17 0 9 18 -11 23 -17 4 -19 9 -10 31 7 19 6 26
-3 26 -6 0 -1 10 13 21 24 20 24 20 3 14 -34 -9 -20 14 27 48 22 16 40 33 40
38 0 5 7 9 16 9 13 0 11 -6 -10 -27z m-593 -100 c26 -36 47 -74 47 -85 0 -10
7 -35 15 -54 15 -35 11 -69 -5 -44 -12 19 -40 4 -40 -21 0 -12 -8 -23 -20 -26
-11 -3 -21 -9 -21 -14 -1 -5 -2 -15 -3 -21 0 -7 -18 -17 -39 -22 -45 -11 -63
2 -72 52 -5 30 -3 32 24 32 16 0 33 6 39 13 6 7 10 63 9 138 -1 81 2 125 8
122 6 -2 31 -34 58 -70z m-3303 -13 c12 -8 11 -10 -7 -10 -13 0 -23 5 -23 10
0 13 11 13 30 0z m4354 -55 c18 -38 25 -78 60 -325 9 -63 23 -136 30 -162 13
-45 12 -88 -3 -88 -3 0 -7 -17 -8 -38 -1 -20 -18 -68 -37 -107 -20 -38 -36
-76 -36 -83 0 -7 -18 -48 -41 -91 -40 -78 -81 -131 -100 -131 -6 0 -8 -4 -4
-10 3 -5 -7 -16 -22 -24 -15 -8 -24 -15 -20 -16 5 0 0 -12 -11 -27 -10 -16
-21 -35 -25 -44 -3 -10 -20 -18 -41 -21 -44 -5 -46 6 -5 27 17 9 35 29 41 45
5 16 18 32 29 35 10 4 19 10 19 15 0 5 -6 7 -13 4 -18 -7 -55 269 -38 289 6 8
8 17 5 20 -12 11 7 28 20 18 8 -7 15 -1 25 22 8 18 24 46 37 64 24 31 24 32 3
38 -16 5 -18 10 -9 20 7 8 9 18 6 24 -3 5 6 19 21 30 16 11 23 21 17 21 -13 0
-10 51 6 80 7 13 14 80 17 152 6 140 -6 193 -51 230 -20 16 -20 18 -3 35 20
20 75 43 97 40 8 -1 23 -20 34 -42z m-4348 19 c-3 -8 -2 -13 3 -10 4 3 17 -1
27 -9 18 -13 18 -14 -5 -39 -39 -42 -58 -32 -53 27 1 9 -5 17 -13 17 -8 0 -15
7 -15 15 0 10 10 15 31 15 24 0 30 -4 25 -16z m4794 -26 c0 -16 -3 -19 -11
-11 -6 6 -8 16 -5 22 11 17 16 13 16 -11z m-1884 -53 c18 -14 18 -16 -14 -45
-39 -36 -45 -37 -71 -8 -19 20 -19 22 -3 34 9 7 13 14 7 15 -10 1 32 16 51 18
5 1 19 -6 30 -14z m-2856 -24 c8 -1 22 -6 30 -11 12 -7 12 -12 2 -22 -6 -6
-12 -19 -11 -27 0 -11 3 -10 9 4 8 18 9 18 9 2 1 -18 -21 -47 -34 -47 -4 0 -4
7 -1 16 4 12 1 14 -14 9 -14 -4 -20 -2 -20 8 0 8 -6 17 -14 20 -20 8 -9 56 12
52 10 -2 24 -4 32 -4z m2357 -59 c6 -4 14 -19 18 -34 7 -27 7 -27 -27 -16 -18
6 -38 12 -45 14 -6 2 -9 12 -6 23 5 21 37 28 60 13z m-612 -80 c7 -27 16 -88
18 -128 1 -11 8 -28 15 -36 15 -19 0 -68 -22 -68 -8 0 -22 -3 -31 -6 -10 -4
-15 -2 -13 7 2 7 -6 15 -17 17 -34 7 -38 19 -15 50 21 29 22 62 2 62 -6 0 -22
-16 -37 -36 -25 -33 -27 -42 -22 -93 4 -32 9 -65 12 -73 12 -31 -26 -29 -56 3
l-30 32 27 76 c31 88 39 106 62 131 9 10 30 36 45 58 31 45 51 46 62 4z m1645
-7 c0 -8 -4 -15 -9 -15 -5 0 -7 -15 -6 -32 3 -32 -21 -68 -45 -68 -14 0 -13
15 7 77 12 38 22 53 35 53 10 0 18 -7 18 -15z m-3456 -17 c-8 -22 -73 -49 -92
-39 -9 4 -24 6 -32 4 -8 -2 -1 7 15 21 22 19 41 26 72 26 30 0 41 -4 37 -12z
m3792 -43 c9 -22 -25 -117 -52 -146 -13 -14 -24 -30 -24 -36 0 -5 -13 -27 -30
-48 -16 -20 -32 -46 -36 -57 -5 -17 -12 -20 -45 -15 -34 4 -41 2 -57 -21 -10
-15 -22 -35 -26 -46 -5 -15 -14 -18 -50 -14 -34 4 -45 2 -55 -13 -6 -11 -18
-19 -27 -19 -14 0 -14 3 -4 15 19 22 59 112 53 118 -2 3 11 10 31 17 35 11 88
62 120 116 18 29 172 164 188 164 5 0 11 -7 14 -15z m-3121 -5 c3 -5 1 -10 -4
-10 -6 0 -11 5 -11 10 0 6 2 10 4 10 3 0 8 -4 11 -10z m-775 -10 c-8 -5 -22
-9 -30 -9 -10 0 -8 3 5 9 27 12 43 12 25 0z m800 -20 c0 -5 -4 -10 -9 -10 -6
0 -13 5 -16 10 -3 6 1 10 9 10 9 0 16 -4 16 -10z m2596 -47 c-2 -3 -15 0 -28
7 -22 11 -22 10 -4 -4 11 -9 24 -16 29 -16 4 0 5 -5 1 -12 -4 -7 -7 -33 -7
-57 1 -35 -1 -41 -8 -28 -6 10 -7 26 -4 37 5 15 3 18 -8 14 -20 -7 -31 14 -17
31 10 13 8 15 -16 15 l-29 1 23 19 c19 16 27 17 48 8 13 -6 22 -13 20 -15z
m-1142 -18 c8 -8 28 -15 45 -15 17 0 31 -4 31 -8 0 -17 80 -44 110 -37 21 5
30 3 31 -7 0 -7 2 -27 3 -45 5 -44 -31 -69 -77 -54 -26 10 -34 8 -53 -10 -19
-17 -28 -19 -51 -12 -22 8 -27 15 -25 37 1 14 -1 26 -6 26 -5 0 -12 17 -16 39
-3 21 -13 44 -21 51 -19 16 -20 50 -1 50 8 0 21 -7 30 -15z m777 -65 c16 0 46
7 65 15 20 8 40 13 44 10 5 -3 16 2 24 11 15 14 16 14 13 -3 -2 -10 -11 -32
-20 -50 -20 -37 -53 -49 -165 -56 l-73 -4 4 49 c3 27 11 55 17 63 10 12 16 10
36 -10 15 -16 36 -25 55 -25z m2766 -9 c-3 -16 -17 -41 -30 -55 -24 -26 -24
-26 -42 -6 -14 16 -15 20 -4 21 9 0 10 2 3 5 -22 9 -2 44 30 53 47 14 49 13
43 -18z m-637 4 c0 -8 -7 -15 -16 -15 -14 0 -14 3 -4 15 7 8 14 15 16 15 2 0
4 -7 4 -15z m-1765 -75 c3 -5 1 -10 -4 -10 -6 0 -11 5 -11 10 0 6 2 10 4 10 3
0 8 -4 11 -10z m1605 0 c0 -5 -4 -10 -10 -10 -5 0 -10 -7 -10 -15 0 -8 -7 -15
-15 -15 -20 0 -19 9 3 31 19 20 32 24 32 9z m750 -30 c0 -5 -5 -10 -11 -10 -5
0 -7 5 -4 10 3 6 8 10 11 10 2 0 4 -4 4 -10z m-4361 -88 c68 -75 96 -124 110
-191 6 -25 13 -59 16 -76 4 -16 11 -40 17 -52 6 -12 8 -29 5 -37 -4 -9 -2 -16
4 -16 15 0 28 -43 17 -57 -5 -7 -7 -21 -3 -33 6 -18 2 -20 -44 -20 -31 0 -51
-4 -51 -11 0 -36 -80 113 -109 203 -7 21 -16 40 -20 42 -4 3 -8 71 -9 151 -1
81 -5 151 -8 156 -3 5 -1 9 5 9 5 0 37 -30 70 -68z m3511 58 c-20 -13 -33 -13
-25 0 3 6 14 10 23 10 15 0 15 -2 2 -10z m844 -5 c3 -8 1 -15 -4 -15 -6 0 -10
7 -10 15 0 8 2 15 4 15 2 0 6 -7 10 -15z m-1469 -35 c-3 -5 -10 -10 -16 -10
-5 0 -9 5 -9 10 0 6 7 10 16 10 8 0 12 -4 9 -10z m-1365 -170 c8 0 9 -4 3 -12
-5 -7 -8 -23 -7 -36 2 -29 -23 -42 -89 -47 -29 -1 -61 -6 -72 -10 l-20 -8 20
17 20 16 -20 -6 c-11 -4 0 10 25 32 24 22 56 52 70 67 25 28 25 28 42 7 9 -11
22 -20 28 -20z m564 6 c-3 -14 0 -29 10 -39 21 -21 20 -31 -10 -91 -15 -28
-35 -82 -45 -121 -10 -38 -26 -76 -36 -83 -10 -7 -17 -18 -16 -23 2 -5 -4 -9
-13 -9 -10 0 -14 6 -11 14 3 8 2 16 -4 18 -5 2 -5 16 1 38 5 19 10 47 10 63 0
15 7 44 17 65 9 20 17 40 17 44 1 3 4 10 9 14 13 13 7 23 -10 18 -11 -3 -9 0
3 7 12 6 34 33 49 60 29 54 39 62 29 25z m294 -40 c1 -14 -3 -26 -9 -26 -6 0
-9 6 -6 14 3 8 -1 20 -8 26 -8 7 -12 16 -9 22 9 15 29 -8 32 -36z m-2543 -33
c22 -8 18 -18 -11 -31 -14 -7 -22 -17 -19 -22 9 -15 -24 -25 -38 -11 -15 15
-37 14 -58 -4 -15 -15 -17 -14 -23 10 -4 14 -4 30 -1 34 3 5 -2 12 -11 15 -8
3 -12 11 -8 17 7 11 135 5 169 -8z m1798 -6 c4 -11 32 -14 117 -13 104 2 135
-4 110 -19 -5 -3 -22 -8 -37 -10 -16 -2 -52 -9 -82 -14 -92 -19 -143 -14 -170
14 -13 14 -27 25 -33 25 -5 0 -6 5 -3 10 3 6 11 10 16 10 6 0 7 -4 4 -10 -3
-5 -1 -10 4 -10 6 0 11 4 11 9 0 9 20 17 46 20 7 0 14 -5 17 -12z m-322 -41
c-6 -14 -18 -26 -26 -26 -9 0 -13 -4 -10 -10 3 -5 1 -10 -5 -10 -6 0 -8 -5 -5
-10 4 -6 -8 -13 -25 -17 -22 -4 -27 -8 -19 -14 24 -15 -18 -22 -55 -9 -20 6
-40 9 -46 5 -5 -3 -10 -2 -10 2 0 18 26 39 65 52 22 8 42 17 45 21 6 9 94 50
98 46 1 -2 -2 -15 -7 -30z m2379 20 c0 -2 -7 -9 -15 -16 -12 -10 -15 -10 -15
4 0 9 7 16 15 16 8 0 15 -2 15 -4z m-1359 -20 c-6 -8 -25 -19 -42 -26 -17 -8
-28 -18 -25 -26 9 -23 -20 -38 -43 -22 -19 14 -19 15 12 33 18 10 37 24 42 31
9 11 30 19 59 23 5 0 3 -5 -3 -13z m1389 -42 c0 -24 -1 -24 -17 -9 -14 14 -14
18 -2 26 19 12 19 12 19 -17z m83 -8 c6 -14 -15 -51 -47 -82 -19 -19 -19 -18
-13 16 12 59 48 99 60 66z m-3185 -26 c7 0 41 -12 77 -26 36 -15 79 -27 96
-28 16 -1 33 -6 37 -12 4 -6 39 -26 77 -44 99 -48 112 -64 78 -102 -17 -19
-40 -22 -92 -12 -23 5 -37 17 -51 43 -35 65 -33 64 -73 44 -20 -10 -37 -21
-37 -24 0 -11 59 -32 73 -26 8 3 20 2 26 -3 18 -11 4 -53 -15 -46 -9 3 -12 1
-9 -4 3 -6 -1 -10 -9 -10 -8 0 -13 6 -11 13 7 17 -11 41 -24 33 -15 -10 -14
-36 2 -37 6 -1 1 -4 -12 -8 -29 -8 -100 23 -109 48 -3 9 -11 20 -18 24 -8 4
-16 31 -20 58 -6 47 -10 53 -43 67 -20 8 -47 15 -60 14 -25 -2 -91 25 -91 38
0 10 117 21 147 13 21 -5 24 -3 18 8 -5 8 0 7 12 -3 11 -10 25 -18 31 -18z
m452 -10 c-8 -5 -19 -10 -25 -10 -5 0 -3 5 5 10 8 5 20 10 25 10 6 0 3 -5 -5
-10z m1150 -19 c0 -9 -24 -21 -42 -21 -6 0 -6 6 2 15 14 16 40 20 40 6z m24
-30 c-10 -10 -26 -16 -34 -12 -12 4 -12 6 3 9 9 2 17 8 17 13 0 5 8 9 17 9 15
0 14 -2 -3 -19z m-84 -45 c0 -3 -4 -8 -10 -11 -5 -3 -10 -1 -10 4 0 6 5 11 10
11 6 0 10 -2 10 -4z m384 -66 c-6 -50 -83 -187 -98 -173 -3 3 -6 0 -6 -8 0 -8
-9 -20 -20 -27 -20 -12 -20 -11 -14 41 10 81 -11 82 -86 7 -33 -33 -67 -59
-77 -58 -40 3 -51 -3 -56 -31 -5 -23 -10 -28 -26 -24 -10 3 -30 -2 -43 -11
-20 -13 -33 -14 -78 -5 -103 20 -129 21 -165 9 -29 -10 -35 -15 -29 -32 4 -14
2 -18 -5 -14 -6 4 -17 1 -25 -6 -32 -30 -55 -46 -59 -41 -3 3 -12 0 -19 -7 -7
-6 -29 -21 -48 -33 -31 -19 -45 -24 -87 -29 -7 -1 -10 -5 -8 -9 7 -10 -15 -25
-48 -33 -24 -6 -14 7 51 64 113 100 227 170 279 170 13 0 23 4 23 9 0 12 69
53 95 56 44 6 75 18 69 27 -3 5 -13 7 -21 4 -8 -4 -11 -1 -8 5 4 6 13 8 20 5
8 -3 15 -1 17 3 7 17 251 112 348 135 56 13 104 27 107 30 14 13 20 4 17 -24z
m692 -46 c23 -55 20 -76 -27 -209 -78 -221 -79 -255 -17 -347 19 -29 46 -80
59 -113 13 -33 26 -62 29 -65 6 -4 33 -68 36 -80 0 -3 6 -18 12 -33 17 -40 15
-55 -8 -62 -29 -9 -40 2 -34 34 4 21 1 30 -11 35 -10 4 -15 12 -11 22 4 10 -5
27 -24 45 -25 26 -36 30 -75 28 -29 -2 -45 -7 -45 -16 0 -22 -47 -16 -53 7 -3
13 -10 18 -21 14 -12 -5 -21 4 -33 32 -9 22 -18 44 -19 49 -1 6 -3 16 -5 24
-3 8 12 19 41 29 41 14 42 16 21 24 -13 4 -28 5 -33 1 -7 -3 -8 -1 -4 5 5 8
-1 12 -14 12 -24 0 -83 -44 -73 -54 3 -3 0 -13 -8 -22 -8 -10 -12 -20 -9 -22
3 -3 -10 -14 -27 -24 -18 -10 -65 -37 -105 -61 -40 -23 -86 -48 -103 -55 -29
-13 -29 -12 11 30 23 24 40 48 37 55 -2 6 15 26 37 45 55 43 105 97 105 111 0
6 15 14 33 18 36 7 75 37 66 50 -3 5 2 9 10 9 9 0 16 5 16 11 0 6 -7 9 -15 6
-24 -10 -27 11 -5 35 19 21 19 23 4 29 -16 5 -16 6 -1 12 9 3 17 15 17 25 0
11 6 25 14 31 16 13 19 88 5 97 -14 8 72 104 93 104 57 0 91 56 100 167 2 20
19 3 34 -33z m-3161 26 c3 -5 1 -10 -4 -10 -6 0 -11 5 -11 10 0 6 2 10 4 10 3
0 8 -4 11 -10z m1065 -64 c0 -11 -19 -15 -25 -6 -3 5 1 10 9 10 9 0 16 -2 16
-4z m130 -80 c0 -2 -7 -6 -15 -10 -8 -3 -15 -1 -15 4 0 6 7 10 15 10 8 0 15
-2 15 -4z m-2250 -55 c0 -13 -28 -22 -35 -11 -3 4 1 11 7 13 20 8 28 8 28 -2z
m3337 -25 c-2 -6 -12 -13 -23 -15 -15 -3 -16 -1 -6 11 6 8 9 18 5 22 -4 4 1 4
10 0 10 -3 16 -12 14 -18z m33 6 c0 -12 -39 -52 -51 -52 -5 0 -1 10 11 22 11
12 20 25 20 30 0 4 5 8 10 8 6 0 10 -4 10 -8z m1569 -19 c6 -10 11 -12 11 -5
0 23 25 12 48 -23 36 -57 62 -132 62 -183 0 -42 -3 -48 -29 -60 -51 -22 -96
17 -115 101 -4 15 -11 27 -16 27 -6 0 -10 9 -10 20 0 11 -6 20 -14 20 -7 0
-21 11 -30 25 l-17 25 -37 -20 c-20 -12 -52 -30 -69 -41 -18 -12 -38 -22 -45
-23 -29 -6 -48 -19 -48 -32 0 -8 -4 -14 -9 -14 -5 0 -23 -3 -40 -6 -20 -4 -31
-3 -31 5 0 6 7 11 15 11 8 0 15 3 15 8 0 9 73 44 86 40 5 -2 19 6 31 17 31 29
44 38 77 55 16 8 31 22 33 31 3 8 23 20 46 26 63 15 75 15 86 -4z m-1719 -63
c0 -14 -7 -20 -22 -20 -20 0 -21 1 -3 20 10 11 20 20 22 20 1 0 3 -9 3 -20z
m65 -30 c4 -6 3 -10 -2 -9 -4 1 -14 1 -22 0 -11 -1 -11 -4 0 -18 13 -15 12
-15 -8 -3 -20 13 -20 15 -5 27 21 15 29 16 37 3z m-91 -37 c-10 -7 -22 -13
-27 -13 -4 0 -5 -10 -2 -22 5 -18 4 -20 -4 -8 -25 36 6 93 37 67 11 -9 11 -13
-4 -24z m6 -17 c0 -3 -4 -8 -10 -11 -5 -3 -10 -1 -10 4 0 6 5 11 10 11 6 0 10
-2 10 -4z m730 -140 c0 -2 -7 -6 -15 -10 -8 -3 -15 -1 -15 4 0 6 7 10 15 10 8
0 15 -2 15 -4z m-1842 -105 c12 -6 39 -10 60 -7 36 5 36 5 7 -5 -16 -6 -38
-22 -48 -35 l-18 -24 52 0 c37 0 50 -3 46 -12 -3 -9 9 -14 42 -15 39 -1 67 -4
114 -12 5 0 6 -5 3 -10 -8 -12 34 -22 53 -12 9 5 33 11 54 14 35 5 37 4 25
-10 -8 -10 -8 -14 -1 -10 6 4 26 -1 45 -12 21 -12 54 -19 92 -20 32 -1 64 -5
71 -11 6 -5 33 -9 58 -8 25 1 41 5 35 9 -7 4 -2 11 12 19 18 10 21 9 15 -1 -6
-9 -2 -11 13 -7 35 10 16 -8 -35 -33 -29 -13 -72 -24 -108 -25 -33 -2 -79 -5
-103 -6 -30 -2 -41 0 -37 10 2 7 -3 12 -14 12 -10 0 -21 -6 -24 -13 -7 -19
-125 -31 -144 -16 -18 15 -88 -4 -97 -26 -3 -8 -11 -15 -19 -15 -7 0 -30 -9
-52 -20 -47 -24 -61 -25 -69 -5 -3 8 -10 15 -16 15 -12 0 -98 56 -115 74 -18
20 -100 56 -127 56 -15 0 -29 4 -32 9 -4 5 -29 12 -57 16 -36 5 -59 15 -80 36
-28 27 -37 49 -21 49 4 0 13 14 19 30 6 17 16 30 22 30 15 0 14 -60 -1 -61 -7
0 -2 -5 11 -10 18 -7 35 -5 64 6 30 12 42 13 47 4 5 -6 16 -8 30 -4 12 4 19 9
16 12 -3 3 10 18 30 33 30 22 45 26 97 25 34 -1 72 -7 85 -14z m-1398 -39 c0
-13 -30 -52 -41 -52 -5 0 -9 9 -9 20 0 11 7 20 15 20 8 0 15 5 15 10 0 6 5 10
10 10 6 0 10 -3 10 -8z m1653 -8 c48 -8 47 -21 -3 -34 -44 -12 -55 -9 -70 21
-9 16 -7 19 12 19 13 0 40 -3 61 -6z m2795 -54 c7 -11 9 -20 4 -20 -10 0 -32
22 -32 32 0 15 15 8 28 -12z m-4492 -10 c23 0 28 -29 8 -46 -18 -15 -18 -15 4
-11 26 6 28 -3 7 -43 -17 -32 -35 -40 -35 -15 0 8 -4 15 -9 15 -6 0 -6 -12 -1
-29 13 -46 -41 -99 -94 -92 -4 0 -1 11 7 24 20 30 8 51 -24 42 -14 -3 -19 -3
-12 2 6 4 15 22 19 38 9 38 45 95 60 95 7 0 15 7 18 16 4 10 12 14 22 10 9 -3
22 -6 30 -6z m-129 -52 c-3 -8 -6 -5 -6 6 -1 11 2 17 5 13 3 -3 4 -12 1 -19z
m2979 -61 c21 -12 22 -17 18 -152 -4 -151 -6 -181 -17 -191 -4 -4 -7 -14 -7
-23 0 -26 -142 -221 -200 -275 -17 -16 -28 -31 -26 -34 3 -3 -8 -23 -24 -45
-23 -32 -30 -51 -30 -88 0 -26 -4 -51 -10 -54 -5 -3 -10 -15 -10 -26 0 -10 -4
-19 -9 -19 -6 0 -11 -15 -13 -32 -2 -25 -8 -34 -25 -36 -18 -3 -27 7 -47 47
-15 28 -39 64 -56 81 -16 17 -30 35 -30 40 0 6 -6 10 -14 10 -7 0 -24 8 -37
18 -22 17 -72 32 -159 47 -29 6 -81 19 -160 42 -13 4 -13 5 0 14 12 7 9 8 -9
7 -13 -2 -26 3 -28 10 -4 10 2 11 23 6 16 -4 34 -7 41 -7 7 0 9 -5 6 -10 -3
-6 26 -7 79 -4 47 4 88 4 92 0 3 -3 31 -8 62 -9 44 -3 60 1 77 16 23 22 33 25
42 11 3 -5 -4 -12 -15 -16 -11 -3 -20 -15 -20 -26 0 -20 16 -26 22 -9 4 12 28
14 76 4 20 -4 32 -2 32 5 0 6 18 20 40 31 24 12 40 28 40 38 0 10 7 28 16 40
15 22 15 24 -2 37 -21 15 -18 21 37 53 20 12 39 19 43 15 25 -25 106 32 106
75 0 11 7 27 14 35 8 8 15 23 15 33 1 11 4 38 7 62 3 23 3 50 -1 60 -10 23
-12 82 -3 82 6 0 13 23 23 82 3 15 1 30 -5 33 -17 10 -11 35 8 35 9 -1 27 -6
38 -13z m-3161 -156 c7 -12 -12 -24 -25 -16 -11 7 -4 25 10 25 5 0 11 -4 15
-9z m1233 -63 l32 -14 -30 -22 c-16 -12 -41 -22 -55 -22 -59 0 -88 -47 -45
-70 11 -6 18 -15 15 -20 -3 -5 2 -13 11 -18 11 -6 13 -11 5 -16 -16 -10 -14
-53 4 -59 11 -5 14 -25 14 -84 0 -42 -5 -86 -11 -96 -7 -13 -6 -23 1 -30 15
-15 14 -50 -4 -73 -8 -10 -15 -26 -15 -35 0 -22 38 -54 63 -54 14 0 23 -7 25
-20 2 -11 14 -31 25 -43 12 -13 22 -33 22 -45 0 -13 7 -21 20 -22 38 -3 66
-17 62 -29 -4 -9 2 -11 19 -8 26 5 68 -24 58 -39 -3 -5 6 -9 20 -9 16 0 25 5
23 13 -1 8 13 12 45 12 25 0 49 3 53 7 9 8 35 -14 28 -24 -2 -5 -13 -8 -23 -8
-10 0 -20 -6 -23 -12 -2 -8 -21 -13 -48 -13 -38 0 -44 -3 -47 -22 -2 -13 -8
-23 -13 -23 -6 0 -7 -5 -4 -10 3 -6 -1 -13 -9 -16 -8 -3 -23 -27 -33 -52 -17
-46 -37 -71 -58 -72 -6 0 -12 26 -13 60 -1 33 -7 72 -12 86 -6 14 -10 36 -10
50 0 21 -9 29 -32 25 -5 0 -8 6 -8 14 0 9 -9 15 -21 15 -18 0 -19 2 -9 15 10
13 9 15 -9 15 -11 0 -21 6 -21 13 0 7 -19 26 -41 43 -54 38 -89 74 -89 90 0 8
-4 14 -10 14 -5 0 -10 5 -10 12 0 6 -6 19 -14 27 -14 17 -56 171 -58 218 -1
15 2 88 6 161 l8 132 -27 0 c-14 0 -33 7 -41 15 -9 8 -24 15 -34 15 -14 0 -18
5 -13 17 4 11 3 14 -5 9 -7 -4 -10 -2 -6 7 7 19 295 15 342 -5z m-465 -5 c-7
-2 -21 -2 -30 0 -10 3 -4 5 12 5 17 0 24 -2 18 -5z m3742 -123 c3 -5 -1 -10
-10 -10 -9 0 -13 5 -10 10 3 6 8 10 10 10 2 0 7 -4 10 -10z m-582 -242 c-2 -5
5 -21 17 -37 22 -33 13 -49 -19 -31 -12 6 -18 16 -15 25 4 8 -1 26 -9 39 -20
29 -2 56 19 28 7 -9 10 -20 7 -24z m-188 -58 c4 -6 3 -19 -1 -28 -4 -9 -8 -21
-8 -27 -2 -20 -29 -9 -31 13 -1 12 2 22 6 22 5 0 6 7 3 15 -7 17 21 21 31 5z
m-1811 -152 c-68 -88 -104 -121 -144 -133 -22 -7 -23 -6 -11 9 7 9 20 16 27
16 8 0 14 6 14 14 0 7 6 19 14 26 8 6 12 18 10 25 -4 9 6 19 28 28 18 8 48 31
67 51 52 54 49 35 -5 -36z m-169 -164 c-16 -16 -29 -19 -20 -4 3 6 1 10 -4 10
-6 0 -11 -4 -11 -10 0 -5 -6 -10 -14 -10 -8 0 -16 -4 -18 -9 -1 -5 -15 -13
-31 -16 -43 -11 -23 22 22 35 20 5 42 14 50 19 8 5 20 7 27 4 11 -4 11 -8 -1
-19z m-575 -68 c0 -2 -7 -7 -16 -10 -8 -3 -12 -2 -9 4 6 10 25 14 25 6z m2404
-97 c3 -17 6 -46 6 -65 0 -18 5 -36 10 -39 6 -4 8 -11 4 -16 -11 -18 -24 3
-24 40 0 27 -6 43 -20 52 -14 10 -18 21 -14 37 9 32 30 27 38 -9z m-1518 -202
c-3 -14 -12 -27 -20 -30 -12 -5 -12 0 2 27 19 38 27 39 18 3z m427 -29 c-3
-18 -11 -45 -19 -59 -7 -15 -16 -45 -20 -67 -3 -21 -9 -45 -13 -51 -14 -22
-39 0 -45 41 -6 36 -4 44 18 62 13 12 27 30 30 42 6 18 41 64 51 64 2 0 1 -15
-2 -32z m-669 6 c3 -8 2 -12 -4 -9 -6 3 -10 10 -10 16 0 14 7 11 14 -7z"/>
<path d="M5156 5953 c-2 -3 -2 -12 1 -20 4 -11 0 -14 -18 -12 -13 1 -37 -3
-53 -10 -16 -6 -35 -10 -43 -7 -7 3 -13 1 -13 -4 0 -5 17 -17 37 -25 29 -12
38 -13 45 -3 4 7 8 10 8 6 0 -4 16 1 36 13 35 19 37 19 49 2 7 -10 17 -15 21
-11 4 4 -9 23 -29 42 -20 18 -38 32 -41 29z"/>
<path d="M4982 5890 c-14 -23 -16 -60 -3 -60 5 0 11 8 15 18 3 9 10 27 16 40
12 29 -10 31 -28 2z"/>
<path d="M5080 5825 c7 -8 20 -15 30 -15 10 0 23 7 30 15 11 13 7 15 -30 15
-37 0 -41 -2 -30 -15z"/>
<path d="M5231 5831 c-11 -7 -10 -11 6 -19 22 -12 49 0 39 17 -9 13 -26 14
-45 2z"/>
<path d="M5716 5482 c-8 -13 36 -24 48 -12 7 7 6 10 -1 10 -6 0 -18 3 -26 6
-8 3 -18 1 -21 -4z"/>
<path d="M5330 5324 c0 -3 7 -12 15 -20 13 -13 15 -13 15 -1 0 8 -7 17 -15 21
-8 3 -15 3 -15 0z"/>
<path d="M5686 4635 c4 -8 16 -15 27 -15 20 0 20 0 1 15 -25 19 -35 19 -28 0z"/>
<path d="M5755 4540 c-3 -5 1 -10 10 -10 9 0 13 5 10 10 -3 6 -8 10 -10 10 -2
0 -7 -4 -10 -10z"/>
<path d="M2880 4480 c0 -11 5 -20 11 -20 5 0 7 5 4 10 -3 6 -1 10 4 10 6 0 11
5 11 10 0 6 -7 10 -15 10 -8 0 -15 -9 -15 -20z"/>
<path d="M4740 4240 c0 -5 5 -10 11 -10 5 0 7 5 4 10 -3 6 -8 10 -11 10 -2 0
-4 -4 -4 -10z"/>
<path d="M5176 3639 c-14 -11 -24 -24 -21 -29 3 -5 -1 -10 -10 -12 -9 -2 -11
-8 -6 -16 6 -9 14 -6 35 13 15 14 25 29 22 34 -4 5 0 11 6 14 7 2 10 7 7 11
-3 3 -18 -3 -33 -15z"/>
<path d="M5121 3641 c-8 -5 -9 -11 -3 -15 5 -3 12 1 16 9 6 17 6 18 -13 6z"/>
<path d="M1840 3340 c0 -5 5 -10 10 -10 6 0 10 5 10 10 0 6 -4 10 -10 10 -5 0
-10 -4 -10 -10z"/>
<path d="M2735 3069 c-4 -6 -5 -13 -2 -16 7 -7 27 6 27 18 0 12 -17 12 -25 -2z"/>
<path d="M4040 2890 c-9 -6 -10 -10 -3 -10 6 0 15 5 18 10 8 12 4 12 -15 0z"/>
<path d="M5957 2764 c-8 -8 1 -24 14 -24 5 0 9 7 9 15 0 15 -12 20 -23 9z"/>
<path d="M4345 1674 c-9 -9 -14 -18 -11 -21 7 -7 46 16 46 27 0 15 -17 12 -35
-6z"/>
<path d="M2920 6448 c-11 -12 -18 -29 -15 -39 6 -18 -46 -69 -71 -69 -12 0
-12 -4 -4 -21 8 -14 8 -29 1 -50 -11 -33 2 -40 19 -10 5 11 23 22 40 26 17 4
35 16 42 28 14 27 38 46 57 47 12 0 11 -3 -1 -17 -22 -26 -29 -77 -14 -99 18
-28 18 -74 1 -101 -18 -27 -11 -47 15 -40 10 2 24 1 31 -4 14 -8 76 38 71 54
-1 5 3 19 11 31 8 12 11 32 7 46 -5 21 -12 25 -43 26 -46 1 -50 4 -42 46 5 28
11 34 28 33 54 -5 62 20 17 50 -16 11 -30 27 -30 35 0 9 -10 16 -24 18 -19 1
-25 -4 -30 -29 -5 -27 -8 -29 -27 -18 -15 7 -18 13 -10 18 7 5 9 15 5 26 -5
13 -4 16 4 11 8 -5 10 -2 6 8 -8 22 -20 20 -44 -6z m160 -237 c0 -10 -24 -21
-47 -21 -13 0 -13 3 -3 15 13 16 50 21 50 6z"/>
<path d="M1816 6131 c-3 -5 1 -14 9 -21 8 -7 15 -22 15 -33 0 -11 3 -18 6 -15
3 3 2 22 -1 42 -7 35 -18 45 -29 27z"/>
<path d="M5690 5990 c8 -5 20 -10 25 -10 6 0 3 5 -5 10 -8 5 -19 10 -25 10 -5
0 -3 -5 5 -10z"/>
<path d="M5635 5954 c-9 -15 -12 -23 -6 -20 11 7 35 46 28 46 -3 0 -12 -12
-22 -26z"/>
<path d="M1518 5883 c6 -2 18 -2 25 0 6 3 1 5 -13 5 -14 0 -19 -2 -12 -5z"/>
<path d="M1307 5813 c-12 -12 -7 -23 7 -17 41 16 68 -173 40 -278 -7 -29 -14
-68 -14 -85 0 -37 1 -37 -37 -23 -26 9 -27 9 -9 -5 24 -18 55 -20 60 -2 28 98
37 331 15 375 -20 39 -45 53 -62 35z"/>
<path d="M1920 5789 c0 -14 6 -18 23 -16 35 3 30 -42 -8 -68 -16 -11 -32 -29
-33 -40 -2 -11 -9 -26 -15 -34 -8 -9 -8 -16 -2 -18 6 -2 17 -8 25 -13 13 -9
13 -11 0 -20 -10 -6 -11 -10 -2 -10 6 0 12 -7 12 -15 0 -8 8 -15 17 -15 13 0
14 3 5 12 -17 17 -15 25 11 33 36 12 59 13 91 4 48 -14 69 -3 62 33 -3 16 -16
44 -28 61 -13 18 -22 33 -20 35 1 1 2 14 2 28 0 19 -4 25 -15 20 -9 -3 -24 3
-34 13 -10 10 -34 21 -54 24 -32 5 -37 3 -37 -14z m125 -179 c3 -5 -1 -10 -10
-10 -9 0 -13 5 -10 10 3 6 8 10 10 10 2 0 7 -4 10 -10z"/>
<path d="M1512 5774 c10 -10 23 -14 37 -9 30 9 16 25 -22 25 -29 0 -30 -1 -15
-16z"/>
<path d="M1330 5584 c0 -21 4 -33 10 -29 6 3 10 19 10 36 0 16 -4 29 -10 29
-5 0 -10 -16 -10 -36z"/>
<path d="M1710 5560 c0 -5 5 -10 11 -10 5 0 7 5 4 10 -3 6 -8 10 -11 10 -2 0
-4 -4 -4 -10z"/>
<path d="M1854 5555 c-4 -8 -23 -18 -44 -21 -41 -7 -54 -22 -39 -45 8 -12 10
-12 18 0 5 7 22 14 39 15 18 1 40 11 52 23 l20 22 -20 11 c-16 9 -22 8 -26 -5z"/>
<path d="M1664 5480 c-11 -4 -26 -15 -33 -24 -7 -9 -19 -16 -25 -16 -22 0 -37
-17 -30 -33 9 -24 30 -21 105 16 46 23 62 36 55 43 -17 16 -49 22 -72 14z"/>
<path d="M1250 5318 c0 -8 5 -19 12 -26 9 -9 9 -12 -2 -13 -8 -1 -19 -1 -24 0
-5 1 -6 -5 -3 -13 4 -9 3 -15 -1 -15 -20 3 -25 -2 -12 -12 11 -8 12 -12 3 -16
-7 -2 -13 -9 -13 -14 0 -6 9 -5 21 1 11 7 32 9 46 5 17 -4 29 -1 34 7 15 22
10 29 -12 18 -11 -6 -28 -9 -37 -7 -13 4 -12 5 4 6 17 1 20 6 16 33 -5 34 -32
72 -32 46z"/>
<path d="M6283 5225 c0 -8 4 -15 9 -15 4 0 8 4 8 9 0 6 -4 12 -8 15 -5 3 -9
-1 -9 -9z"/>
<path d="M6290 4590 c0 -5 5 -10 10 -10 6 0 10 5 10 10 0 6 -4 10 -10 10 -5 0
-10 -4 -10 -10z"/>
<path d="M6502 4470 c0 -14 2 -19 5 -12 2 6 2 18 0 25 -3 6 -5 1 -5 -13z"/>
<path d="M5997 4241 c-4 -17 -3 -21 5 -13 5 5 8 16 6 23 -3 8 -7 3 -11 -10z"/>
<path d="M5930 4175 c0 -13 38 -41 45 -33 1 2 -1 13 -6 26 -9 24 -39 30 -39 7z"/>
<path d="M5920 4120 c0 -5 5 -10 11 -10 5 0 7 5 4 10 -3 6 -8 10 -11 10 -2 0
-4 -4 -4 -10z"/>
<path d="M6298 4123 c-20 -5 -22 -12 -9 -32 5 -7 11 -9 13 -5 6 12 18 44 15
43 -1 -1 -10 -3 -19 -6z"/>
<path d="M5831 3866 c-8 -9 -11 -19 -7 -23 9 -9 29 13 24 27 -2 8 -8 7 -17 -4z"/>
<path d="M666 3376 c-37 -14 -63 -31 -69 -44 -8 -17 -16 -20 -41 -16 -24 4
-27 3 -16 -5 8 -6 28 -11 43 -11 16 0 38 -10 53 -25 14 -14 27 -25 29 -25 3 0
28 -18 57 -40 29 -22 59 -40 66 -40 6 0 12 -3 12 -7 0 -5 14 -17 30 -28 17
-11 37 -34 45 -52 9 -19 24 -33 38 -35 34 -5 27 -38 -18 -82 -32 -30 -34 -34
-10 -18 76 50 151 155 141 196 -3 12 -3 26 1 30 4 4 9 18 10 31 4 30 -17 34
-24 5 -4 -16 -11 -19 -27 -14 -11 4 -28 7 -36 8 -19 1 -30 28 -36 89 -5 38 -3
47 10 47 22 0 20 13 -4 35 -15 14 -23 15 -33 6 -11 -9 -17 -8 -27 4 -19 23
-123 19 -194 -9z"/>
<path d="M583 3265 c-3 -9 -3 -19 1 -22 3 -4 6 2 6 11 0 12 5 16 16 12 8 -3
12 -2 9 4 -9 15 -25 12 -32 -5z"/>
<path d="M670 3212 c0 -6 9 -12 20 -15 11 -3 20 -3 20 -1 0 2 -9 8 -20 14 -11
6 -20 7 -20 2z"/>
<path d="M786 3137 c3 -10 9 -15 12 -12 3 3 0 11 -7 18 -10 9 -11 8 -5 -6z"/>
<path d="M835 3025 c-1 -46 1 -82 4 -80 7 8 10 138 3 151 -4 7 -7 -25 -7 -71z"/>
<path d="M905 2921 c-3 -5 -1 -12 5 -16 13 -8 50 3 50 16 0 12 -47 12 -55 0z"/>
<path d="M6212 2893 c1 -10 -1 -24 -6 -31 -7 -12 -4 -12 13 -2 17 8 20 15 12
24 -6 7 -8 16 -4 19 3 4 1 7 -6 7 -7 0 -11 -8 -9 -17z"/>
<path d="M1097 2580 c-16 -13 -27 -31 -27 -45 0 -14 -9 -29 -20 -35 -15 -8
-20 -21 -20 -51 0 -44 -24 -89 -48 -89 -13 0 -13 2 2 13 21 15 18 52 -4 52
-11 0 -15 -11 -15 -39 -1 -22 -6 -41 -13 -44 -7 -2 -12 -10 -12 -17 0 -17 36
-38 53 -31 7 2 2 8 -10 11 -30 10 -29 33 1 41 31 8 86 86 141 203 21 43 7 58
-28 31z"/>
<path d="M1765 2530 c-3 -6 1 -7 9 -4 18 7 21 14 7 14 -6 0 -13 -4 -16 -10z"/>
<path d="M2170 2430 c0 -5 5 -10 10 -10 6 0 10 5 10 10 0 6 -4 10 -10 10 -5 0
-10 -4 -10 -10z"/>
<path d="M2130 2250 c0 -5 5 -10 10 -10 6 0 10 5 10 10 0 6 -4 10 -10 10 -5 0
-10 -4 -10 -10z"/>
<path d="M2152 2203 c-6 -2 -9 -9 -6 -14 8 -14 -15 -39 -37 -39 -11 0 -19 -5
-19 -10 0 -9 27 -7 68 6 6 2 12 13 12 24 0 11 5 20 10 20 6 0 10 5 10 10 0 10
-16 12 -38 3z"/>
<path d="M1287 2130 c7 -25 -15 -144 -34 -190 -22 -52 -34 -95 -24 -84 12 12
41 91 48 129 3 17 10 35 15 42 5 6 12 37 15 67 5 46 3 56 -10 56 -10 0 -13 -6
-10 -20z"/>
<path d="M1227 1971 c-16 -27 -16 -31 -2 -31 18 0 28 21 23 45 -2 12 -8 8 -21
-14z"/>
<path d="M1195 1919 c-3 -4 2 -6 10 -5 21 3 28 13 10 13 -9 0 -18 -4 -20 -8z"/>
<path d="M5966 1768 l-18 -33 21 25 c18 22 26 40 18 40 -1 0 -11 -15 -21 -32z"/>
<path d="M5861 1706 c0 -11 3 -15 6 -8 2 6 14 12 26 12 41 0 46 15 6 16 -34 1
-39 -1 -38 -20z"/>
<path d="M2082 1133 c-21 -10 -29 -20 -24 -25 12 -12 48 -6 44 6 -2 5 2 12 9
17 26 16 3 17 -29 2z"/>
<path d="M2498 1133 c7 -3 16 -2 19 1 4 3 -2 6 -13 5 -11 0 -14 -3 -6 -6z"/>
<path d="M2380 1116 c-28 -6 -37 -11 -25 -13 27 -5 104 12 85 18 -8 3 -35 1
-60 -5z"/>
<path d="M3920 730 c0 -5 7 -7 15 -4 8 4 15 8 15 10 0 2 -7 4 -15 4 -8 0 -15
-4 -15 -10z"/>
<path d="M3903 664 c-8 -21 1 -26 22 -11 16 13 16 14 1 20 -10 4 -19 1 -23 -9z"/>
</g>
</svg>
